<svg width="219" height="199" viewBox="0 0 219 199" fill="none" xmlns="http://www.w3.org/2000/svg">
<path d="M88.7153 51.1718C86.938 53.3201 83.5005 58.2612 83.5005 64.0616C83.5005 71.8737 86.4888 74.8618 91.3129 79.6857C96.1371 84.5096 99.1253 87.4977 106.938 87.4977C112.738 87.4977 117.68 84.0604 119.828 82.2832C120.609 81.6387 121 80.6817 121 79.6857C121 78.6896 120.609 77.7327 119.828 77.1077C117.602 75.3305 112.348 71.8737 105.375 71.8737C99.1253 71.8737 97.5628 73.4361 97.5628 73.4361C97.5628 73.4361 99.1253 71.8737 99.1253 65.624C99.1253 58.6518 95.6683 53.3982 93.891 51.1718C93.266 50.3906 92.309 50 91.3129 50C90.3168 50 89.3598 50.3906 88.7153 51.1718ZM68.7742 76.5609C60.9618 76.5609 53.7158 80.0958 48.9111 85.9744L60.7274 97.79C61.9383 99.0009 61.9383 100.993 60.7274 102.204C59.5165 103.415 57.5243 103.415 56.3134 102.204L45.5128 91.4037V91.4232L21.4311 143.334C20.6108 145.111 20.9818 147.221 22.3685 148.627C23.7552 150.033 25.8646 150.384 27.6614 149.564L53.9697 137.377L43.794 127.202C42.5831 125.991 42.5831 123.999 43.794 122.789C45.005 121.578 46.9971 121.578 48.208 122.789L60.0047 134.565L79.5748 125.503C88.6372 121.304 94.4574 112.223 94.4574 102.223C94.4379 88.0445 82.9537 76.5609 68.7742 76.5609Z" fill="#A1C181"/>
<path d="M175.715 51.1718C173.938 53.3201 170.501 58.2612 170.501 64.0616C170.501 71.8737 173.489 74.8618 178.313 79.6857C183.137 84.5096 186.125 87.4977 193.938 87.4977C199.738 87.4977 204.68 84.0604 206.828 82.2832C207.609 81.6387 208 80.6817 208 79.6857C208 78.6896 207.609 77.7327 206.828 77.1077C204.602 75.3305 199.348 71.8737 192.375 71.8737C186.125 71.8737 184.563 73.4361 184.563 73.4361C184.563 73.4361 186.125 71.8737 186.125 65.624C186.125 58.6518 182.668 53.3982 180.891 51.1718C180.266 50.3906 179.309 50 178.313 50C177.317 50 176.36 50.3906 175.715 51.1718ZM155.774 76.5609C147.962 76.5609 140.716 80.0958 135.911 85.9744L147.727 97.79C148.938 99.0009 148.938 100.993 147.727 102.204C146.516 103.415 144.524 103.415 143.313 102.204L132.513 91.4037V91.4232L108.431 143.334C107.611 145.111 107.982 147.221 109.369 148.627C110.755 150.033 112.865 150.384 114.661 149.564L140.97 137.377L130.794 127.202C129.583 125.991 129.583 123.999 130.794 122.789C132.005 121.578 133.997 121.578 135.208 122.789L147.005 134.565L166.575 125.503C175.637 121.304 181.457 112.223 181.457 102.223C181.438 88.0445 169.954 76.5609 155.774 76.5609Z" fill="#F4900C"/>
<path d="M132.715 51.1718C130.938 53.3201 127.501 58.2612 127.501 64.0616C127.501 71.8737 130.489 74.8618 135.313 79.6857C140.137 84.5096 143.125 87.4977 150.938 87.4977C156.738 87.4977 161.68 84.0604 163.828 82.2832C164.609 81.6387 165 80.6817 165 79.6857C165 78.6896 164.609 77.7327 163.828 77.1077C161.602 75.3305 156.348 71.8737 149.375 71.8737C143.125 71.8737 141.563 73.4361 141.563 73.4361C141.563 73.4361 143.125 71.8737 143.125 65.624C143.125 58.6518 139.668 53.3982 137.891 51.1718C137.266 50.3906 136.309 50 135.313 50C134.317 50 133.36 50.3906 132.715 51.1718ZM112.774 76.5609C104.962 76.5609 97.7158 80.0958 92.9111 85.9744L104.727 97.79C105.938 99.0009 105.938 100.993 104.727 102.204C103.516 103.415 101.524 103.415 100.313 102.204L89.5128 91.4037V91.4232L65.4311 143.334C64.6108 145.111 64.9818 147.221 66.3685 148.627C67.7552 150.033 69.8646 150.384 71.6614 149.564L97.9697 137.377L87.794 127.202C86.5831 125.991 86.5831 123.999 87.794 122.789C89.005 121.578 90.9971 121.578 92.208 122.789L104.005 134.565L123.575 125.503C132.637 121.304 138.457 112.223 138.457 102.223C138.438 88.0445 126.954 76.5609 112.774 76.5609Z" fill="black"/>
</svg>
