<svg width="183" height="104" viewBox="0 0 183 104" fill="none" xmlns="http://www.w3.org/2000/svg">
<path d="M67.7153 1.1718C65.938 3.32011 62.5005 8.26121 62.5005 14.0616C62.5005 21.8737 65.4888 24.8618 70.3129 29.6857C75.1371 34.5096 78.1253 37.4977 85.9377 37.4977C91.7384 37.4977 96.6797 34.0604 98.8281 32.2832C99.6094 31.6387 100 30.6817 100 29.6857C100 28.6896 99.6094 27.7327 98.8281 27.1077C96.6016 25.3305 91.3478 21.8737 84.3752 21.8737C78.1253 21.8737 76.5628 23.4361 76.5628 23.4361C76.5628 23.4361 78.1253 21.8737 78.1253 15.624C78.1253 8.65181 74.6683 3.39823 72.891 1.1718C72.266 0.390601 71.309 0 70.3129 0C69.3168 0 68.3598 0.390601 67.7153 1.1718ZM47.7742 26.5609C39.9618 26.5609 32.7158 30.0958 27.9111 35.9744L39.7274 47.79C40.9383 49.0009 40.9383 50.993 39.7274 52.2038C38.5165 53.4147 36.5243 53.4147 35.3134 52.2038L24.5128 41.4037V41.4232L0.431058 93.3341C-0.389243 95.1114 -0.0181545 97.2206 1.36855 98.6268C2.75524 100.033 4.86459 100.384 6.66144 99.5642L32.9697 87.3775L22.794 77.2023C21.5831 75.9914 21.5831 73.9994 22.794 72.7885C24.005 71.5776 25.9971 71.5776 27.208 72.7885L39.0047 84.5651L58.5748 75.5032C67.6372 71.3042 73.4574 62.2227 73.4574 52.2234C73.4379 38.0445 61.9537 26.5609 47.7742 26.5609Z" fill="black"/>
<path d="M104.715 5.1718C102.938 7.32011 99.5005 12.2612 99.5005 18.0616C99.5005 25.8737 102.489 28.8618 107.313 33.6857C112.137 38.5096 115.125 41.4977 122.938 41.4977C128.738 41.4977 133.68 38.0604 135.828 36.2832C136.609 35.6387 137 34.6817 137 33.6857C137 32.6896 136.609 31.7327 135.828 31.1077C133.602 29.3305 128.348 25.8737 121.375 25.8737C115.125 25.8737 113.563 27.4361 113.563 27.4361C113.563 27.4361 115.125 25.8737 115.125 19.624C115.125 12.6518 111.668 7.39823 109.891 5.1718C109.266 4.3906 108.309 4 107.313 4C106.317 4 105.36 4.3906 104.715 5.1718ZM84.7742 30.5609C76.9618 30.5609 69.7158 34.0958 64.9111 39.9744L76.7274 51.79C77.9383 53.0009 77.9383 54.993 76.7274 56.2038C75.5165 57.4147 73.5243 57.4147 72.3134 56.2038L61.5128 45.4037V45.4232L37.4311 97.3341C36.6108 99.1114 36.9818 101.221 38.3685 102.627C39.7552 104.033 41.8646 104.384 43.6614 103.564L69.9697 91.3775L59.794 81.2023C58.5831 79.9914 58.5831 77.9994 59.794 76.7885C61.005 75.5776 62.9971 75.5776 64.208 76.7885L76.0047 88.5651L95.5748 79.5032C104.637 75.3042 110.457 66.2227 110.457 56.2234C110.438 42.0445 98.9537 30.5609 84.7742 30.5609Z" fill="#A1C181"/>
<path d="M150.715 5.1718C148.938 7.32011 145.501 12.2612 145.501 18.0616C145.501 25.8737 148.489 28.8618 153.313 33.6857C158.137 38.5096 161.125 41.4977 168.938 41.4977C174.738 41.4977 179.68 38.0604 181.828 36.2832C182.609 35.6387 183 34.6817 183 33.6857C183 32.6896 182.609 31.7327 181.828 31.1077C179.602 29.3305 174.348 25.8737 167.375 25.8737C161.125 25.8737 159.563 27.4361 159.563 27.4361C159.563 27.4361 161.125 25.8737 161.125 19.624C161.125 12.6518 157.668 7.39823 155.891 5.1718C155.266 4.3906 154.309 4 153.313 4C152.317 4 151.36 4.3906 150.715 5.1718ZM130.774 30.5609C122.962 30.5609 115.716 34.0958 110.911 39.9744L122.727 51.79C123.938 53.0009 123.938 54.993 122.727 56.2038C121.516 57.4147 119.524 57.4147 118.313 56.2038L107.513 45.4037V45.4232L83.4311 97.3341C82.6108 99.1114 82.9818 101.221 84.3685 102.627C85.7552 104.033 87.8646 104.384 89.6614 103.564L115.97 91.3775L105.794 81.2023C104.583 79.9914 104.583 77.9994 105.794 76.7885C107.005 75.5776 108.997 75.5776 110.208 76.7885L122.005 88.5651L141.575 79.5032C150.637 75.3042 156.457 66.2227 156.457 56.2234C156.438 42.0445 144.954 30.5609 130.774 30.5609Z" fill="#F4900C"/>
</svg>
