<svg width="219" height="199" viewBox="0 0 219 199" fill="none" xmlns="http://www.w3.org/2000/svg">
<path d="M151.571 50C148 50 123 56.25 123 84.375V106.25C123 113.145 129.406 118.75 137.286 118.75H144.429V143.75C144.429 147.207 147.621 150 151.571 150C155.522 150 158.714 147.207 158.714 143.75V56.25C158.714 52.793 155.522 50 151.571 50Z" fill="black"/>
<path d="M65.2857 58.125C65.2857 56.5234 63.9241 55.1953 62.0938 55.0195C60.2634 54.8438 58.6339 55.8984 58.2321 57.4414L51.4687 84.0625C51.1562 85.293 51 86.543 51 87.793C51 96.7578 58.8348 104.121 68.8571 104.922V148.75C68.8571 152.207 72.0491 155 76 155C79.9509 155 83.1429 152.207 83.1429 148.75V104.922C93.1652 104.121 101 96.7578 101 87.793C101 86.543 100.844 85.293 100.531 84.0625L93.7679 57.4414C93.3661 55.8789 91.692 54.8438 89.8839 55.0195C88.0759 55.1953 86.7143 56.5234 86.7143 58.125V84.3359C86.7143 85.3906 85.7321 86.25 84.5268 86.25C83.3884 86.25 82.4509 85.4883 82.3393 84.4922L79.5491 57.8516C79.3929 56.2305 77.8527 55 76 55C74.1473 55 72.6071 56.2305 72.4509 57.8516L69.683 84.4922C69.5714 85.4883 68.6339 86.25 67.4955 86.25C66.2902 86.25 65.308 85.3906 65.308 84.3359V58.125H65.2857ZM76.067 87.8125H75.933L76 87.6758L76.067 87.8125Z" fill="black"/>
</svg>
