<svg width="175" height="176" viewBox="0 0 175 176" fill="none" xmlns="http://www.w3.org/2000/svg">
<path d="M89.5 42C81.0226 42 73.5511 46.9083 71.1563 54.04C68.6179 53.0332 65.9358 52.4878 63.1579 52.4878C58.0769 52.4878 53.204 54.2557 49.6112 57.4027C46.0184 60.5496 44 64.8178 44 69.2683C44.0113 72.9845 45.4272 76.5928 48.0266 79.5299C50.626 82.4669 54.2625 84.5674 58.3684 85.5034V115.415H120.632V85.5034C129.061 83.5737 135 76.9034 135 69.2683C135 64.8178 132.982 60.5496 129.389 57.4027C125.796 54.2557 120.923 52.4878 115.842 52.4878C113.064 52.4878 110.382 53.0332 107.844 54.04C105.449 46.9083 97.9774 42 89.5 42ZM58.3684 119.61V123.805C58.3684 124.917 58.873 125.985 59.7712 126.771C60.6694 127.558 61.8876 128 63.1579 128H115.842C117.112 128 118.331 127.558 119.229 126.771C120.127 125.985 120.632 124.917 120.632 123.805V119.61H58.3684Z" fill="black"/>
<path d="M65 90.4999C65 93.4284 66.317 96.2368 68.6612 98.3076C71.0054 100.378 74.1848 101.542 77.5 101.542C82.1193 101.694 86.5363 103.254 90 105.958C93.4637 103.254 97.8807 101.694 102.5 101.542C105.815 101.542 108.995 100.378 111.339 98.3076C113.683 96.2368 115 93.4284 115 90.4999V79.4583H102.5C97.8807 79.6102 93.4637 81.1709 90 83.8749C86.5363 81.1709 82.1193 79.6102 77.5 79.4583H65V90.4999Z" stroke="white" stroke-width="1.66667" stroke-linecap="round" stroke-linejoin="round"/>
<path d="M75 88.2915C78.75 88.2915 82.5 89.3957 82.5 92.7082C77.5 92.7082 75 92.7082 75 88.2915ZM105 88.2915C101.25 88.2915 97.5 89.3957 97.5 92.7082C102.5 92.7082 105 92.7082 105 88.2915Z" stroke="white" stroke-width="1.66667" stroke-linecap="round" stroke-linejoin="round"/>
</svg>
