<svg width="219" height="199" viewBox="0 0 219 199" fill="none" xmlns="http://www.w3.org/2000/svg">
<path d="M126.715 51.1718C124.938 53.3201 121.501 58.2612 121.501 64.0616C121.501 71.8737 124.489 74.8618 129.313 79.6857C134.137 84.5096 137.125 87.4977 144.938 87.4977C150.738 87.4977 155.68 84.0604 157.828 82.2832C158.609 81.6387 159 80.6817 159 79.6857C159 78.6896 158.609 77.7327 157.828 77.1077C155.602 75.3305 150.348 71.8737 143.375 71.8737C137.125 71.8737 135.563 73.4361 135.563 73.4361C135.563 73.4361 137.125 71.8737 137.125 65.624C137.125 58.6518 133.668 53.3982 131.891 51.1718C131.266 50.3906 130.309 50 129.313 50C128.317 50 127.36 50.3906 126.715 51.1718ZM106.774 76.5609C98.9618 76.5609 91.7158 80.0958 86.9111 85.9744L98.7274 97.79C99.9383 99.0009 99.9383 100.993 98.7274 102.204C97.5165 103.415 95.5243 103.415 94.3134 102.204L83.5128 91.4037V91.4232L59.4311 143.334C58.6108 145.111 58.9818 147.221 60.3685 148.627C61.7552 150.033 63.8646 150.384 65.6614 149.564L91.9697 137.377L81.794 127.202C80.5831 125.991 80.5831 123.999 81.794 122.789C83.005 121.578 84.9971 121.578 86.208 122.789L98.0047 134.565L117.575 125.503C126.637 121.304 132.457 112.223 132.457 102.223C132.438 88.0445 120.954 76.5609 106.774 76.5609Z" fill="black"/>
</svg>
