<svg width="219" height="199" viewBox="0 0 219 199" fill="none" xmlns="http://www.w3.org/2000/svg">
<path d="M155.778 51.2H128.143C125.367 44.124 118.094 39 109.5 39C100.906 39 93.6333 44.124 90.8567 51.2H63.2222C55.95 51.2 50 56.69 50 63.4V148.8C50 155.51 55.95 161 63.2222 161H155.778C163.05 161 169 155.51 169 148.8V63.4C169 56.69 163.05 51.2 155.778 51.2ZM76.4444 81.7H89.6667V106.1H83.0556V87.8H76.4444V81.7ZM96.2778 136.6V142.7H76.4444V137.088L89.6667 124.4H76.4444V118.3H91.3194C94.03 118.3 96.2778 120.374 96.2778 122.875C96.2778 124.095 95.7489 125.254 94.8894 126.047L83.8489 136.6H96.2778ZM102.889 57.3C102.889 53.945 105.864 51.2 109.5 51.2C113.136 51.2 116.111 53.945 116.111 57.3C116.111 60.655 113.136 63.4 109.5 63.4C105.864 63.4 102.889 60.655 102.889 57.3ZM142.556 136.6H109.5V124.4H142.556V136.6ZM142.556 100H109.5V87.8H142.556V100Z" fill="black"/>
<path d="M76 87.898V81H90V107H82.5V87.898H76Z" fill="#A1C181"/>
<path d="M109 100.5V88H143V100.5H109Z" fill="#A1C181" stroke="#A1C181"/>
<path d="M109 136.5V124H143V136.5H109Z" fill="#A1C181" stroke="#A1C181"/>
<path d="M76 124.5V118.5H93C95.8 118.5 96.1667 122.5 96 124.5L84.5 136.5H96V142.5H76V137.5L89.5 124.5H76Z" fill="#A1C181" stroke="#A1C181"/>
</svg>
