<svg width="219" height="199" viewBox="0 0 219 199" fill="none" xmlns="http://www.w3.org/2000/svg">
<path d="M151.857 50C148.286 50 123.286 56.25 123.286 84.375V106.25C123.286 113.145 129.692 118.75 137.571 118.75H144.714V143.75C144.714 147.207 147.906 150 151.857 150C155.808 150 159 147.207 159 143.75V56.25C159 52.793 155.808 50 151.857 50ZM73.2857 53.125C73.2857 51.5234 71.9241 50.1953 70.0938 50.0195C68.2634 49.8438 66.6339 50.8984 66.2321 52.4414L59.4687 79.0625C59.1562 80.293 59 81.543 59 82.793C59 91.7578 66.8348 99.1211 76.8571 99.9219V143.75C76.8571 147.207 80.0491 150 84 150C87.9509 150 91.1429 147.207 91.1429 143.75V99.9219C101.165 99.1211 109 91.7578 109 82.793C109 81.543 108.844 80.293 108.531 79.0625L101.768 52.4414C101.366 50.8789 99.692 49.8438 97.8839 50.0195C96.0759 50.1953 94.7143 51.5234 94.7143 53.125V79.3359C94.7143 80.3906 93.7321 81.25 92.5268 81.25C91.3884 81.25 90.4509 80.4883 90.3393 79.4922L87.5491 52.8516C87.3929 51.2305 85.8527 50 84 50C82.1473 50 80.6071 51.2305 80.4509 52.8516L77.683 79.4922C77.5714 80.4883 76.6339 81.25 75.4955 81.25C74.2902 81.25 73.308 80.3906 73.308 79.3359V53.125H73.2857ZM84.067 82.8125H83.933L84 82.6758L84.067 82.8125Z" fill="black"/>
</svg>
