<svg width="219" height="199" viewBox="0 0 219 199" fill="none" xmlns="http://www.w3.org/2000/svg">
<path d="M143.687 57.9909C145.449 56.1549 145.449 53.1861 143.687 51.3697C141.924 49.5532 139.074 49.5337 137.33 51.3697L120.811 68.5381C119.048 70.374 119.048 73.3429 120.811 75.1593C122.573 76.9758 125.423 76.9953 127.167 75.1593L143.668 57.9714L143.687 57.9909ZM106.279 55.3151C105.116 54.1041 103.204 54.1041 102.041 55.3151L99.9036 57.5222C92.872 64.8466 92.872 76.7219 99.9036 84.0462L101.854 86.0775L96.1347 92.0347C95.4971 86.7026 93.2283 81.5267 89.2906 77.425L87.1718 75.2179C86.0093 74.0069 84.0967 74.0069 82.9341 75.2179L80.8153 77.425C73.7838 84.7494 73.7838 96.6247 80.8153 103.949L82.7654 105.98L77.0464 111.938C76.4089 106.605 74.14 101.429 70.2024 97.3278L68.0836 95.1012C66.921 93.8902 65.0084 93.8902 63.8459 95.1012L61.7271 97.3083C54.6955 104.633 54.6955 116.508 61.7271 123.832L63.6771 125.864L50.7579 139.321C48.414 141.762 48.414 145.727 50.7579 148.169C53.1017 150.61 56.9081 150.61 59.252 148.169L72.1712 134.712L74.4588 137.094C81.4903 144.419 92.8908 144.419 99.9223 137.094L102.041 134.887C103.204 133.676 103.204 131.684 102.041 130.473L99.9223 128.266C95.8346 124.008 90.6219 121.606 85.278 121.059L91.2595 114.828L93.5471 117.211C97.766 121.606 103.541 123.364 108.998 122.485V121.879C108.998 115.414 110.704 109.359 113.685 104.183C110.779 102.484 107.591 101.488 104.347 101.156L110.329 94.9254L112.617 97.3083C113.742 98.4802 114.979 99.4763 116.31 100.277C121.467 93.6363 128.93 89.0464 137.424 87.8159C136.655 87.0737 135.849 86.3901 135.005 85.765L143.687 76.7414C145.449 74.9054 145.449 71.9366 143.687 70.1201C141.924 68.3037 139.074 68.2841 137.33 70.1201L126.192 81.722C122.329 80.8626 118.317 80.9993 114.51 82.1321C115.654 77.9719 115.748 73.5772 114.773 69.3779L125.686 57.9909C127.448 56.1549 127.448 53.1861 125.686 51.3697C123.923 49.5532 121.073 49.5337 119.329 51.3697L110.704 60.3152C110.01 59.3386 109.241 58.4011 108.379 57.5222L106.279 55.3151ZM141.999 149.985C156.906 149.985 169 137.387 169 121.86C169 106.332 156.906 93.734 141.999 93.734C127.092 93.734 114.998 106.332 114.998 121.86C114.998 137.387 127.092 149.985 141.999 149.985ZM141.999 140.61C139.505 140.61 137.499 138.52 137.499 135.923C137.499 133.325 139.505 131.235 141.999 131.235C144.493 131.235 146.499 133.325 146.499 135.923C146.499 138.52 144.493 140.61 141.999 140.61ZM141.999 103.109C143.649 103.109 144.999 104.515 144.999 106.234V121.86C144.999 123.578 143.649 124.985 141.999 124.985C140.349 124.985 138.999 123.578 138.999 121.86V106.234C138.999 104.515 140.349 103.109 141.999 103.109Z" fill="black"/>
</svg>
