<svg width="219" height="199" viewBox="0 0 219 199" fill="none" xmlns="http://www.w3.org/2000/svg">
<path d="M80.9334 109.878L99.9196 141.035C102.648 145.51 101.308 151.398 96.9247 154.184C95.4536 155.123 93.7388 155.623 91.9862 155.625H54.0111C48.8516 155.625 44.6667 151.353 44.6667 146.08C44.6667 144.296 45.1569 142.551 46.0777 141.035L65.0667 109.878C67.7924 105.403 73.5554 104.032 77.9386 106.818C79.1512 107.588 80.1769 108.635 80.9334 109.878ZM73.0001 144.458C73.7515 144.458 74.4722 144.164 75.0035 143.64C75.5349 143.117 75.8334 142.407 75.8334 141.666C75.8334 140.926 75.5349 140.216 75.0035 139.692C74.4722 139.169 73.7515 138.875 73.0001 138.875C72.2486 138.875 71.528 139.169 70.9966 139.692C70.4653 140.216 70.1667 140.926 70.1667 141.666C70.1667 142.407 70.4653 143.117 70.9966 143.64C71.528 144.164 72.2486 144.458 73.0001 144.458ZM73.0001 119.333C72.2486 119.333 71.528 119.627 70.9966 120.151C70.4653 120.674 70.1667 121.384 70.1667 122.125V133.291C70.1667 134.032 70.4653 134.742 70.9966 135.265C71.528 135.789 72.2486 136.083 73.0001 136.083C73.7515 136.083 74.4722 135.789 75.0035 135.265C75.5349 134.742 75.8334 134.032 75.8334 133.291V122.125C75.8334 121.384 75.5349 120.674 75.0035 120.151C74.4722 119.627 73.7515 119.333 73.0001 119.333Z" fill="black"/>
<path d="M95.65 127.65C91.5 121.85 91.5 115.15 91.5 108.5C99.85 113.5 108.15 118.5 112.35 124.35L114 127.15V115.75C106.5 111.25 99.4 106.65 95.65 101.4C91.5 95.6 91.5 88.9 91.5 82.25C99.85 87.25 108.15 92.25 112.35 98.1L114 101V89.5C106.5 85 99.4 80.4 95.65 75.15C91.5 69.35 91.5 62.65 91.5 56C99.85 61 108.15 66 112.35 71.85C112.85 72.55 113.3 73.3 113.7 74.1C112.85 71 112.3 68.1 112.25 65.1C112.2 57.55 115.5 49.8 118.8 42.05C122.25 49.45 125.7 56.9 125.75 64.45C125.8 67.6 125.25 70.8 124.35 73.95C124.75 73.25 125.15 72.55 125.65 71.85C129.85 66 138.15 61 146.5 56C146.5 62.65 146.5 69.35 142.35 75.15C138.6 80.4 131.5 85 124 89.5V101L125.65 98.1C129.85 92.25 138.15 87.25 146.5 82.25C146.5 88.9 146.5 95.6 142.35 101.4C138.6 106.65 131.5 111.25 124 115.75V127.15L125.65 124.35C129.85 118.5 138.15 113.5 146.5 108.5C146.5 115.15 146.5 121.85 142.35 127.65C138.6 132.9 131.5 137.5 124 142V151H114V142C106.5 137.5 99.4 132.9 95.65 127.65Z" fill="black"/>
</svg>
